<?xml version="1.0" encoding="utf-8"?>
<!-- Generator: Adobe Illustrator 18.0.0, SVG Export Plug-In . SVG Version: 6.00 Build 0)  -->
<!DOCTYPE svg PUBLIC "-//W3C//DTD SVG 1.1//EN" "http://www.w3.org/Graphics/SVG/1.1/DTD/svg11.dtd">
<svg version="1.1" id="Layer_1" xmlns="http://www.w3.org/2000/svg" xmlns:xlink="http://www.w3.org/1999/xlink" x="0px" y="0px"
	 viewBox="0 0 60 54" enable-background="new 0 0 60 54" xml:space="preserve">
<g>
	<circle fill="#B3B3B3" cx="20.1" cy="11.3" r="2.9"/>
	<path fill="#B3B3B3" d="M22.8,21.6h-5.4c-0.8,0-1.4-0.7-1.4-1.6v-3.7c0-0.9,0.6-2.5,1.4-2.5c0,0,1.4,1,2.7,1s2.7-1,2.7-1
		c0.8,0,1.4,1.7,1.4,2.5V20C24.2,20.9,23.6,21.6,22.8,21.6z"/>
	<path fill="#B3B3B3" d="M42.8,29H17c-0.9,0-1.7-0.8-1.7-1.7v0c0-0.9,0.8-1.7,1.7-1.7h25.8c0.9,0,1.7,0.8,1.7,1.7v0
		C44.5,28.2,43.8,29,42.8,29z"/>
	<path fill="#B3B3B3" d="M42.8,35.5H17c-0.9,0-1.7-0.8-1.7-1.7v0c0-0.9,0.8-1.7,1.7-1.7h25.8c0.9,0,1.7,0.8,1.7,1.7v0
		C44.5,34.8,43.8,35.5,42.8,35.5z"/>
	<path fill="#B3B3B3" d="M42.8,42H17c-0.9,0-1.7-0.8-1.7-1.7v0c0-0.9,0.8-1.7,1.7-1.7h25.8c0.9,0,1.7,0.8,1.7,1.7v0
		C44.5,41.3,43.8,42,42.8,42z"/>
	<path fill="none" stroke="#B3B3B3" stroke-width="0.9645" stroke-miterlimit="10" d="M42.3,49H19.1c-3.5,0-6.3-2.8-6.3-6.3V10.9
		c0-3.5,2.8-6.3,6.3-6.3h23.3c3.5,0,6.3,2.8,6.3,6.3v31.8C48.6,46.2,45.8,49,42.3,49z"/>
</g>
</svg>
