<?xml version="1.0" encoding="utf-8"?>
<!-- Generator: Adobe Illustrator 18.0.0, SVG Export Plug-In . SVG Version: 6.00 Build 0)  -->
<!DOCTYPE svg PUBLIC "-//W3C//DTD SVG 1.1//EN" "http://www.w3.org/Graphics/SVG/1.1/DTD/svg11.dtd">
<svg version="1.1" id="Layer_1" xmlns="http://www.w3.org/2000/svg" xmlns:xlink="http://www.w3.org/1999/xlink" x="0px" y="0px"
	 viewBox="0 0 60 54" enable-background="new 0 0 60 54" xml:space="preserve">
<g>
	<path fill="none" stroke="#B3B3B3" stroke-width="0.9645" stroke-miterlimit="10" d="M41.4,48.1H20c-3.2,0-5.8-2.6-5.8-5.8V13.2
		c0-3.2,2.6-5.8,5.8-5.8h21.5c3.2,0,5.8,2.6,5.8,5.8v29.1C47.2,45.5,44.6,48.1,41.4,48.1z"/>
	<circle fill="#B3B3B3" cx="30.5" cy="16.6" r="3.6"/>
	<path fill="#B3B3B3" d="M31.2,43.3h-1c-1.7,0-3.1-1.4-3.1-3.1V26c0-1.7,1.4-3.1,3.1-3.1h1c1.7,0,3.1,1.4,3.1,3.1v14.2
		C34.3,41.9,32.9,43.3,31.2,43.3z"/>
</g>
</svg>
