<?xml version="1.0" encoding="utf-8"?>
<!-- Generator: Adobe Illustrator 18.0.0, SVG Export Plug-In . SVG Version: 6.00 Build 0)  -->
<!DOCTYPE svg PUBLIC "-//W3C//DTD SVG 1.1//EN" "http://www.w3.org/Graphics/SVG/1.1/DTD/svg11.dtd">
<svg version="1.1" xmlns="http://www.w3.org/2000/svg" xmlns:xlink="http://www.w3.org/1999/xlink" x="0px" y="0px"
	 viewBox="0 0 1024 720" enable-background="new 0 0 1024 720" xml:space="preserve">
<g id="Artboard4_bottom">
</g>
<g id="Artboard4_top">
</g>
<g id="Artboard4_middle">
</g>
<g id="Artboard2">
	<rect x="0.1" y="-3" fill="#28435B" width="1024.9" height="743.6"/>
</g>
<g id="artboard2_details">
	<path opacity="0.49" fill="#5CC3DB" d="M208,391.7v-8.5l-4.2-1.1c-0.4-1.6-0.6-3.1-1.4-4.5l2.7-3.9l-5.9-6l-3.8,2.6
		c-1.4-0.8-2.9-1.2-4.6-1.7l-1-4.7h-8.5l-0.9,4.6c-1.7,0.4-3.2,1-4.7,1.8l-4-2.7l-6,6l2.7,4c-0.8,1.4-1.7,2.9-2.2,4.4l-5.3,1.1v8.5
		l5.3,0.9c0.5,1.7,1.3,3.4,2.3,4.9l-2.7,4.3l6,6l4.5-3c1.3,0.7,2.7,1.5,4.1,1.9l1,5.2h8.5l1.1-5.2c1.6-0.4,3.1-1.2,4.5-2l3.9,2.5
		l6-6l-2.6-3.8c0.8-1.5,0.6-3,1.1-4.7L208,391.7z M185.8,397.4c-5.4,0-9.8-4.4-9.8-9.8c0-5.4,4.4-9.8,9.8-9.8c5.4,0,9.8,4.4,9.8,9.8
		C195.6,393,191.2,397.4,185.8,397.4z"/>
	<path opacity="0.49" fill="#5CC3DB" d="M161,425.4v-6.2l-3.6-0.8c-0.3-1.2-0.7-2.3-1.3-3.3l1.9-2.9l-4.4-4.4l-2.8,1.9
		c-1-0.6-2.2-0.4-3.4-0.8l-0.8-2.9h-6.2l-0.7,2.9c-1.2,0.3-2.4,0.5-3.4,1.1l-3-2.1l-4.4,4.3l2,2.9c-0.6,1-1.5,2.1-1.8,3.2l-4.1,0.8
		v6.2l4.1,0.7c0.3,1.3,1.1,2.5,1.8,3.6l-1.9,3.2l4.4,4.4l3.3-2.2c0.9,0.5,2,1.5,3,1.8l0.7,4.2h6.2l0.8-4.2c1.2-0.3,2.2-1.1,3.3-1.7
		l2.9,1.7l4.4-4.5l-1.9-2.8c0.6-1.1,1-2.2,1.3-3.4L161,425.4z M143.6,429.5c-4,0-7.2-3.2-7.2-7.2c0-4,3.2-7.2,7.2-7.2
		c4,0,7.2,3.2,7.2,7.2C150.8,426.3,147.6,429.5,143.6,429.5z"/>
	<path opacity="0.49" fill="#5CC3DB" d="M222,443.4v-7.1l-3.8-0.9c-0.4-1.3-0.7-2.6-1.3-3.8l2.2-3.3l-5-5l-3.2,2.2
		c-1.2-0.7-2.5-0.6-3.8-0.9l-0.9-3.4h-7.1l-0.8,3.4c-1.4,0.4-2.7,0.6-3.9,1.3l-3.4-2.3l-5,4.9l2.3,3.3c-0.7,1.2-1.4,2.4-1.8,3.7
		l-4.4,0.9v7.1l4.4,0.8c0.4,1.5,1.1,2.8,1.9,4.1l-2.3,3.6l5.1,5l3.7-2.5c1.1,0.6,2.3,1.6,3.5,1.9l0.8,4.7h7.1l0.9-4.7
		c1.3-0.4,2.6-1.2,3.7-1.8l3.3,2l5-5.1l-2.2-3.2c0.7-1.2,0.8-2.6,1.2-3.9L222,443.4z M202.8,448.1c-4.6,0-8.3-3.7-8.3-8.3
		s3.7-8.3,8.3-8.3c4.6,0,8.3,3.7,8.3,8.3S207.3,448.1,202.8,448.1z"/>
	<g opacity="0.49">
		<path fill="#5CC3DB" d="M338,448c0,0.6-0.4,1-1,1h-32c-0.6,0-1-0.4-1-1l0,0c0-0.6,0.4-1,1-1h32C337.6,447,338,447.4,338,448
			L338,448z"/>
		<path fill="#5CC3DB" d="M305.4,491h31.3c0.7,0,1.2,0.3,1.2,1s-0.6,1-1.2,1h-31.3c-0.7,0-1.2-0.3-1.2-1S304.7,491,305.4,491z"/>
		<path fill="#5CC3DB" d="M299,438.8v58.9c0,1.4,1.3,2.3,2.7,2.3h38.7c1.4,0,1.6-1,1.6-2.3v-58.9c0-1.4-0.3-2.8-1.6-2.8h-14.8
			c0-1-0.9-1-1.9-1h-4.8c-1.1,0-1.9,0-1.9,1h-15.2C300.3,436,299,437.4,299,438.8z M301,441.5c0-1.4,1.7-2.5,3.1-2.5H338
			c1.4,0,2,1.1,2,2.5V495c0,1.4-0.6,3-2,3h-33.9c-1.4,0-3.1-1.7-3.1-3V441.5z"/>
		<path fill="#5CC3DB" d="M305.4,486h31.3c0.7,0,1.2,0.3,1.2,1s-0.6,1-1.2,1h-31.3c-0.7,0-1.2-0.3-1.2-1S304.7,486,305.4,486z"/>
		<path fill="#5CC3DB" d="M305.4,475h31.3c0.7,0,1.2,0.3,1.2,1s-0.6,1-1.2,1h-31.3c-0.7,0-1.2-0.3-1.2-1S304.7,475,305.4,475z"/>
		<path fill="#5CC3DB" d="M305.4,480h31.3c0.7,0,1.2,0.3,1.2,1s-0.6,1-1.2,1h-31.3c-0.7,0-1.2-0.3-1.2-1S304.7,480,305.4,480z"/>
		<path fill="#5CC3DB" d="M305.4,464h31.3c0.7,0,1.2,0.3,1.2,1s-0.6,1-1.2,1h-31.3c-0.7,0-1.2-0.3-1.2-1S304.7,464,305.4,464z"/>
		<path fill="#5CC3DB" d="M305.4,469h31.3c0.7,0,1.2,0.3,1.2,1s-0.6,1-1.2,1h-31.3c-0.7,0-1.2-0.3-1.2-1S304.7,469,305.4,469z"/>
		<path fill="#5CC3DB" d="M305.4,453h31.3c0.7,0,1.2,0.3,1.2,1s-0.6,1-1.2,1h-31.3c-0.7,0-1.2-0.3-1.2-1S304.7,453,305.4,453z"/>
		<path fill="#5CC3DB" d="M305.4,458h31.3c0.7,0,1.2,0.3,1.2,1s-0.6,1-1.2,1h-31.3c-0.7,0-1.2-0.3-1.2-1S304.7,458,305.4,458z"/>
	</g>
	<g opacity="0.49">
		<g>
			<path fill="#5CC3DB" d="M268.7,475.8c0,0-1.1,1.5,1.3,3.2c2.4,1.7,3.5,0.2,3.5,0.2l18.3-25.2l1.7-7.4l-6.5,4L268.7,475.8z"/>
			<path fill="none" stroke="#28435B" stroke-width="0.2516" stroke-miterlimit="10" d="M274.2,478.5l-5-3.6L274.2,478.5z"/>
		</g>
		<line fill="none" stroke="#28435B" stroke-width="0.2516" stroke-miterlimit="10" x1="291.8" y1="454.1" x2="287" y2="450.6"/>
	</g>
	<g opacity="0.49">
		<g>
			<rect x="663.8" y="349.8" fill="#5CC3DB" width="70.5" height="40.1"/>
			<rect x="744.9" y="408.6" fill="#5CC3DB" width="70.5" height="40.1"/>
			<polygon fill="#5CC3DB" points="665.7,527 699,469.2 732.4,527 			"/>
			<polygon fill="#5CC3DB" points="776.5,587 762.5,562.5 776.5,538 804.7,538 818.7,562.5 804.7,587 			"/>
			<circle fill="#5CC3DB" cx="634.9" cy="454.5" r="22.7"/>
			<line fill="none" stroke="#5CC3DB" stroke-width="2" stroke-miterlimit="10" x1="699" y1="390" x2="699" y2="474"/>
			<polyline fill="none" stroke="#5CC3DB" stroke-width="2" stroke-miterlimit="10" points="634.7,454.2 661.6,503 682,503 			"/>
			<polyline fill="none" stroke="#5CC3DB" stroke-width="2" stroke-miterlimit="10" points="780.2,429.2 778.5,504 699,504 699,563 
				791,563 			"/>
		</g>
		<path fill="#5CC3DB" d="M828,353.4h-33.5c-2.3,0-4.2-1.9-4.2-4.2v-4.9c0-2.3,1.9-4.2,4.2-4.2H828c2.3,0,4.2,1.9,4.2,4.2v4.9
			C832.2,351.5,830.3,353.4,828,353.4z"/>
		<path fill="#5CC3DB" d="M893.1,361.1h-33.5c-2.3,0-4.2-1.9-4.2-4.2v-4.9c0-2.3,1.9-4.2,4.2-4.2h33.5c2.3,0,4.2,1.9,4.2,4.2v4.9
			C897.4,359.2,895.5,361.1,893.1,361.1z"/>
		<path fill="#5CC3DB" d="M883.4,392.6h-33.5c-2.3,0-4.2-1.9-4.2-4.2v-4.9c0-2.3,1.9-4.2,4.2-4.2h33.5c2.3,0,4.2,1.9,4.2,4.2v4.9
			C887.6,390.7,885.7,392.6,883.4,392.6z"/>
		<polyline fill="none" stroke="#5CC3DB" stroke-width="2" stroke-miterlimit="10" points="780.8,408.9 812,375.5 812,352 		"/>
		<polyline fill="none" stroke="#5CC3DB" stroke-width="2" stroke-miterlimit="10" points="846,386.6 811.4,375.2 849.6,354 
			877,354 		"/>
	</g>
</g>
<g id="artboard2_top">
	<polygon fill="#305068" points="2,661 513.8,661 2,503.9 	"/>
	<polygon fill="#305068" points="1024.9,664 512.7,664 1026,504.1 	"/>
	<rect x="0" y="659.7" fill="#305068" width="1024.9" height="57.8"/>
</g>
<g id="Layer_2">
</g>
<g id="Layer_3">
</g>
<g id="Layer_1">
</g>
<g id="Layer_4">
</g>
</svg>
