<?xml version="1.0" encoding="utf-8"?>
<!-- Generator: Adobe Illustrator 18.0.0, SVG Export Plug-In . SVG Version: 6.00 Build 0)  -->
<!DOCTYPE svg PUBLIC "-//W3C//DTD SVG 1.1//EN" "http://www.w3.org/Graphics/SVG/1.1/DTD/svg11.dtd">
<svg version="1.1" id="Layer_1" xmlns="http://www.w3.org/2000/svg" xmlns:xlink="http://www.w3.org/1999/xlink" x="0px" y="0px"
	 viewBox="0 0 460 720" enable-background="new 0 0 460 720" xml:space="preserve">
<rect x="209.7" y="118.4" width="112.7" height="69.4"/>
<rect x="38.3" y="147.9" width="112.7" height="69.4"/>
<polygon points="209.2,356 253.5,279.2 297.8,356 "/>
<path d="M64.5,310.9H32.1c-6.6,0-12-5.4-12-12v-3.7c0-6.6,5.4-12,12-12h32.4c6.6,0,12,5.4,12,12v3.7
	C76.5,305.5,71.1,310.9,64.5,310.9z"/>
<path d="M73.2,375.9h-41c-6.6,0-12-5.4-12-12v-4.6c0-6.6,5.4-12,12-12h41c6.6,0,12,5.4,12,12v4.6C85.2,370.5,79.8,375.9,73.2,375.9z
	"/>
<path d="M150.3,291.8h-34c-6.2,0-11.2-5-11.2-11.2v-2.7c0-6.2,5-11.2,11.2-11.2h34c6.2,0,11.2,5,11.2,11.2v2.7
	C161.5,286.8,156.4,291.8,150.3,291.8z"/>
<line fill="none" stroke="#000000" stroke-miterlimit="10" x1="133.3" y1="287" x2="133.3" y2="320.4"/>
<line fill="none" stroke="#000000" stroke-miterlimit="10" x1="74.8" y1="296.5" x2="112.9" y2="320.4"/>
<line fill="none" stroke="#000000" stroke-miterlimit="10" x1="82.8" y1="365" x2="112.9" y2="320.4"/>
<line fill="none" stroke="#000000" stroke-miterlimit="10" x1="112.9" y1="320.4" x2="232" y2="320.4"/>
<circle cx="387.9" cy="361.6" r="32.5"/>
<polygon points="225.1,513.5 196.8,464.4 225.1,415.3 281.8,415.3 310.2,464.4 281.8,513.5 "/>
<path d="M230.5,673.7l-16.3-9.9c-4.3-2.6-7.6-6.5-9.4-11.2l-4.8-12.5c-2.1-5.3-2.1-11.2,0-16.5l4.8-12.5c1.8-4.7,5.1-8.6,9.4-11.2
	l16.3-9.9c3.6-2.2,7.7-3.3,11.8-3.3h22.3c4.2,0,8.3,1.1,11.8,3.3l16.3,9.9c4.3,2.6,7.6,6.5,9.4,11.2l4.8,12.5
	c2.1,5.3,2.1,11.2,0,16.5l-4.8,12.5c-1.8,4.7-5.1,8.6-9.4,11.2l-16.3,9.9c-3.6,2.2-7.7,3.3-11.8,3.3h-22.3
	C238.2,677,234.1,675.8,230.5,673.7z"/>
<circle cx="112" cy="491.7" r="11.2"/>
<path d="M124.7,521.2H99.2v-14.4c0-3.7,3-6.7,6.7-6.7h12.2c3.7,0,6.7,3,6.7,6.7V521.2z"/>
<rect x="38.4" y="473.6" fill="none" stroke="#000000" stroke-miterlimit="10" width="94" height="111.6"/>
<line fill="none" stroke="#000000" stroke-width="2" stroke-miterlimit="10" x1="53.2" y1="500.1" x2="81.7" y2="500.1"/>
<line fill="none" stroke="#000000" stroke-width="2" stroke-miterlimit="10" x1="53.2" y1="510.7" x2="81.7" y2="510.7"/>
<line fill="none" stroke="#000000" stroke-width="2" stroke-miterlimit="10" x1="53.2" y1="534.5" x2="118" y2="534.5"/>
<line fill="none" stroke="#000000" stroke-width="2" stroke-miterlimit="10" x1="53.2" y1="547.4" x2="118" y2="547.4"/>
<line fill="none" stroke="#000000" stroke-width="2" stroke-miterlimit="10" x1="53.2" y1="560.7" x2="118" y2="560.7"/>
<line fill="none" stroke="#000000" stroke-miterlimit="10" x1="362.4" y1="349.4" x2="335.9" y2="320.3"/>
<line fill="none" stroke="#000000" stroke-miterlimit="10" x1="336.3" y1="320.4" x2="273" y2="320.4"/>
<line fill="none" stroke="#000000" stroke-miterlimit="10" x1="266.1" y1="181.1" x2="266.1" y2="226"/>
<line fill="none" stroke="#000000" stroke-miterlimit="10" x1="266.6" y1="225.5" x2="253" y2="225.5"/>
<line fill="none" stroke="#000000" stroke-miterlimit="10" x1="253.5" y1="225" x2="253.5" y2="288.5"/>
<line fill="none" stroke="#000000" stroke-miterlimit="10" x1="147.2" y1="213.3" x2="244.3" y2="305.5"/>
<line fill="none" stroke="#000000" stroke-miterlimit="10" x1="253.5" y1="349.4" x2="253.5" y2="426"/>
<line fill="none" stroke="#000000" stroke-miterlimit="10" x1="131.9" y1="473.9" x2="172.8" y2="444.4"/>
<line fill="none" stroke="#000000" stroke-miterlimit="10" x1="172.5" y1="444.4" x2="212.9" y2="444.4"/>
<line fill="none" stroke="#000000" stroke-miterlimit="10" x1="253.5" y1="511.7" x2="253.5" y2="586.7"/>
<line fill="none" stroke="#000000" stroke-miterlimit="10" x1="253.5" y1="673.7" x2="253.5" y2="720"/>
<circle cx="434.4" cy="560.4" r="11.2"/>
<path d="M421.6,589.9h25.5v-14.4c0-3.7-3-6.7-6.7-6.7h-12.2c-3.7,0-6.7,3-6.7,6.7V589.9z"/>
<circle cx="406.7" cy="560.4" r="11.2"/>
<path d="M394,589.9h25.5v-14.4c0-3.7-3-6.7-6.7-6.7h-12.2c-3.7,0-6.7,3-6.7,6.7V589.9z"/>
<circle cx="379.5" cy="560.4" r="11.2"/>
<path d="M366.8,589.9h25.5v-14.4c0-3.7-3-6.7-6.7-6.7h-12.2c-3.7,0-6.7,3-6.7,6.7V589.9z"/>
<path fill="none" stroke="#000000" stroke-width="2" stroke-miterlimit="10" d="M430.7,550.8l-2.7-18.1c0,0,6.5-5.2,5.9-14.1
	c-0.7-8.9-10.8-10.7-19.7-12.1c-12.8-2.1-22.7-1.9-32.3-0.8c-10.6,1.7-12.4,3.7-14.1,9.9c-2.1,8.1,5.6,12.6,5.6,12.6l4.1,3.1
	l2.1,20.4l6.4-19l15.5,0.3l6.1,19.8l3.4-20.8l8.8-0.1L430.7,550.8z"/>
<line fill="none" stroke="#000000" stroke-miterlimit="10" x1="367.4" y1="521.2" x2="253.5" y2="550.1"/>
<polygon points="336.3,679 326.7,691.9 317.2,679 "/>
<polygon points="336.3,694.1 326.7,706.3 317.2,694.1 "/>
</svg>
